<?xml version="1.0" standalone="no"?><!DOCTYPE svg PUBLIC "-//W3C//DTD SVG 1.1//EN" "http://www.w3.org/Graphics/SVG/1.1/DTD/svg11.dtd"><svg t="1718423505367" class="icon" viewBox="0 0 1024 1024" version="1.1" xmlns="http://www.w3.org/2000/svg" p-id="4313" xmlns:xlink="http://www.w3.org/1999/xlink" width="200" height="200"><path d="M512 1024a512 512 0 1 1 512-512 512 512 0 0 1-512 512zM512 146.285714a365.714286 365.714286 0 1 0 365.714286 365.714286 365.714286 365.714286 0 0 0-365.714286-365.714286z" fill="#1296db" p-id="4314"></path><path d="M512 512m-73.142857 0a73.142857 73.142857 0 1 0 146.285714 0 73.142857 73.142857 0 1 0-146.285714 0Z" fill="#1296db" p-id="4315"></path><path d="M512 256m-36.571429 0a36.571429 36.571429 0 1 0 73.142858 0 36.571429 36.571429 0 1 0-73.142858 0Z" fill="#1296db" p-id="4316"></path><path d="M331.81517 331.320918m-25.859905 25.859905a36.571429 36.571429 0 1 0 51.719811-51.71981 36.571429 36.571429 0 1 0-51.719811 51.71981Z" fill="#1296db" p-id="4317"></path><path d="M256 512m-36.571429 0a36.571429 36.571429 0 1 0 73.142858 0 36.571429 36.571429 0 1 0-73.142858 0Z" fill="#1296db" p-id="4318"></path><path d="M768 512m-36.571429 0a36.571429 36.571429 0 1 0 73.142858 0 36.571429 36.571429 0 1 0-73.142858 0Z" fill="#1296db" p-id="4319"></path><path d="M693.355115 331.838116m-25.859905 25.859905a36.571429 36.571429 0 1 0 51.71981-51.71981 36.571429 36.571429 0 1 0-51.71981 51.71981Z" fill="#1296db" p-id="4320"></path><path d="M585.142857 512H438.857143l73.142857-146.285714 73.142857 146.285714z" fill="#1296db" p-id="4321"></path></svg>