<?xml version="1.0" standalone="no"?><!DOCTYPE svg PUBLIC "-//W3C//DTD SVG 1.1//EN" "http://www.w3.org/Graphics/SVG/1.1/DTD/svg11.dtd"><svg t="1718423697927" class="icon" viewBox="0 0 1024 1024" version="1.1" xmlns="http://www.w3.org/2000/svg" p-id="10323" xmlns:xlink="http://www.w3.org/1999/xlink" width="200" height="200"><path d="M394.881242 156.726205c-15.231048 0-25.91838-16.510968-25.918381-31.358041 0-15.103056 10.943316-26.110368 25.918381-26.110368h239.089056c14.975064 0 25.91838 11.007312 25.918381 26.110368 0 14.847072-10.687332 31.35804-25.918381 31.358041H394.881242zM270.217033 238.385101a25.214424 25.214424 0 0 1-25.982376-26.110368V31.35804c0-19.390788 9.983376-31.35804 25.982376-31.35804 14.975064 0 25.854384 10.943316 25.854384 26.110368v180.916693c1.791888 9.855384 0.383976 16.446972-3.903756 21.694644a28.7982 28.7982 0 0 1-21.950628 9.663396z m488.48147 0a25.150428 25.150428 0 0 1-25.91838-26.110368V31.35804c0-15.167052 10.87932-26.174364 25.91838-26.174364 14.975064 0 25.91838 11.007312 25.91838 26.174364v180.916693c1.535904 7.35954 0.575964 11.711268-2.55984 15.743016a30.71808 30.71808 0 0 1-23.35854 10.367352zM145.488829 1023.936004A146.038873 146.038873 0 0 1 0.02592 877.705143V245.488657c0-83.322792 62.524092-146.230861 145.462909-146.230861 14.975064 0 25.854384 11.007312 25.854384 26.110368 0 15.167052-10.87932 26.110368-25.854384 26.110369C92.884116 158.070121 56.98236 196.659709 56.98236 245.488657v632.216486c0 47.293044 41.341416 88.826448 88.506469 88.826449h737.937878c47.101056 0 88.378476-41.533404 88.378477-88.826449V245.488657c0-47.229048-41.27742-88.762452-88.378477-88.762452-14.71908 0-31.102056-10.687332-31.102056-26.174364 0-15.103056 10.87932-26.046372 25.91838-26.046373 82.87482 0 145.462909 62.844072 145.462909 146.230861v626.968814a134.071621 134.071621 0 0 1-37.565652 100.601713 142.455097 142.455097 0 0 1-102.713581 45.629148H145.488829z" fill="#1890FF" p-id="10324"></path><path d="M521.78531 415.462034c-16.126992 44.349228-34.55784 84.666708-55.292544 120.95244l-31.67802-20.15874v246.512593h-39.741516v-36.285732H311.558449v50.108868h-40.31748V341.162677h163.573777v166.453597a748.241235 748.241235 0 0 0 78.331104-213.106681l41.469408 8.63946c-5.75964 25.342416-12.671208 48.95694-19.582776 71.9955h238.449097v40.317481H594.356774v100.7937h158.390101v39.165552H594.356774v98.489845h171.061309v38.589588H594.356774v131.895756h-41.469408v-408.934441h-31.102056z m-210.226861 272.430973h83.514781V551.389538H311.558449v136.503469z m0-175.669021h83.514781V379.176301H311.558449v133.047685z" fill="#1890FF" p-id="10325"></path></svg>